<svg xmlns="http://www.w3.org/2000/svg" xmlns:xlink="http://www.w3.org/1999/xlink" width="1920" zoomAndPan="magnify" viewBox="0 0 1440 1439.999935" height="1920" preserveAspectRatio="xMidYMid meet" version="1.0"><defs><filter x="0%" y="0%" width="100%" height="100%" id="4e6784a4fe"><feColorMatrix values="0 0 0 0 1 0 0 0 0 1 0 0 0 0 1 0 0 0 1 0" color-interpolation-filters="sRGB"/></filter><mask id="57ffd3fd12"><g filter="url(#4e6784a4fe)"><rect x="-144" width="1728" fill="#000000" y="-143.999994" height="1727.999922" fill-opacity="0.05"/></g></mask><clipPath id="1a81cd58e7"><path d="M 0 0 L 398 0 L 398 957 L 0 957 Z M 0 0 " clip-rule="nonzero"/></clipPath><clipPath id="fafb2e07d3"><path d="M 315.539062 -235.242188 L 397.9375 -205.09375 L -27.261719 956.929688 L -109.660156 926.777344 Z M 315.539062 -235.242188 " clip-rule="nonzero"/></clipPath><clipPath id="9efb8937dd"><rect x="0" width="399" y="0" height="958"/></clipPath><mask id="eb716042a8"><g filter="url(#4e6784a4fe)"><rect x="-144" width="1728" fill="#000000" y="-143.999994" height="1727.999922" fill-opacity="0.05"/></g></mask><clipPath id="4fe072abcd"><path d="M 0 0 L 290.640625 0 L 290.640625 914.160156 L 0 914.160156 Z M 0 0 " clip-rule="nonzero"/></clipPath><clipPath id="c93e9d8d27"><path d="M 273.386719 -254.1875 L 290.5 -247.925781 L -134.695312 914.097656 L -151.8125 907.832031 Z M 273.386719 -254.1875 " clip-rule="nonzero"/></clipPath><clipPath id="46f64b5522"><rect x="0" width="291" y="0" height="915"/></clipPath><mask id="effd77dec6"><g filter="url(#4e6784a4fe)"><rect x="-144" width="1728" fill="#000000" y="-143.999994" height="1727.999922" fill-opacity="0.05"/></g></mask><clipPath id="4e4fa0fd58"><path d="M 0.519531 0.640625 L 409 0.640625 L 409 1396 L 0.519531 1396 Z M 0.519531 0.640625 " clip-rule="nonzero"/></clipPath><clipPath id="8fc879fc41"><path d="M 544.460938 0.789062 L 572.152344 10.921875 L 28.449219 1496.804688 L 0.757812 1486.675781 Z M 544.460938 0.789062 " clip-rule="nonzero"/></clipPath><clipPath id="9b8d7cfa20"><rect x="0" width="409" y="0" height="1396"/></clipPath><mask id="ec85d6c696"><g filter="url(#4e6784a4fe)"><rect x="-144" width="1728" fill="#000000" y="-143.999994" height="1727.999922" fill-opacity="0.25"/></g></mask><clipPath id="c858748c49"><path d="M 1 0.761719 L 231 0.761719 L 231 937 L 1 937 Z M 1 0.761719 " clip-rule="nonzero"/></clipPath><clipPath id="380a7d8ba7"><path d="M 426.203125 0.910156 L 831.898438 149.359375 L 406.699219 1311.378906 L 1.003906 1162.929688 Z M 426.203125 0.910156 " clip-rule="nonzero"/></clipPath><clipPath id="fb4760803f"><rect x="0" width="231" y="0" height="937"/></clipPath><mask id="5e5b477cdc"><g filter="url(#4e6784a4fe)"><rect x="-144" width="1728" fill="#000000" y="-143.999994" height="1727.999922" fill-opacity="0.25"/></g></mask><clipPath id="221718146b"><path d="M 0.441406 0 L 687.078125 0 L 687.078125 1440 L 0.441406 1440 Z M 0.441406 0 " clip-rule="nonzero"/></clipPath><clipPath id="062c5e99c1"><path d="M 617.304688 -169.40625 L 687.019531 -143.894531 L 70.355469 1541.382812 L 0.640625 1515.875 Z M 617.304688 -169.40625 " clip-rule="nonzero"/></clipPath><clipPath id="f45d96a5c6"><rect x="0" width="688" y="0" height="1440"/></clipPath><mask id="62dfa1e791"><g filter="url(#4e6784a4fe)"><rect x="-144" width="1728" fill="#000000" y="-143.999994" height="1727.999922" fill-opacity="0.05"/></g></mask><clipPath id="0ab0eb274b"><path d="M 0.519531 0 L 573.640625 0 L 573.640625 1440 L 0.519531 1440 Z M 0.519531 0 " clip-rule="nonzero"/></clipPath><clipPath id="09d699f872"><rect x="0" width="574" y="0" height="1440"/></clipPath><mask id="ba858357f6"><g filter="url(#4e6784a4fe)"><rect x="-144" width="1728" fill="#000000" y="-143.999994" height="1727.999922" fill-opacity="0.05"/></g></mask><clipPath id="29f736e71a"><path d="M 0.320312 0 L 573.199219 0 L 573.199219 1440 L 0.320312 1440 Z M 0.320312 0 " clip-rule="nonzero"/></clipPath><clipPath id="bdb40c2193"><rect x="0" width="574" y="0" height="1440"/></clipPath><mask id="a754f83f5f"><g filter="url(#4e6784a4fe)"><rect x="-144" width="1728" fill="#000000" y="-143.999994" height="1727.999922" fill-opacity="0.05"/></g></mask><clipPath id="e62f62516d"><path d="M 0.878906 0 L 574 0 L 574 1440 L 0.878906 1440 Z M 0.878906 0 " clip-rule="nonzero"/></clipPath><clipPath id="2b865090b5"><rect x="0" width="574" y="0" height="1440"/></clipPath><mask id="18adfc0836"><g filter="url(#4e6784a4fe)"><rect x="-144" width="1728" fill="#000000" y="-143.999994" height="1727.999922" fill-opacity="0.05"/></g></mask><clipPath id="e9618dbd4c"><path d="M 0.679688 0 L 573.800781 0 L 573.800781 1440 L 0.679688 1440 Z M 0.679688 0 " clip-rule="nonzero"/></clipPath><clipPath id="bdfac2ce41"><rect x="0" width="574" y="0" height="1440"/></clipPath><mask id="ceb3f95aa3"><g filter="url(#4e6784a4fe)"><rect x="-144" width="1728" fill="#000000" y="-143.999994" height="1727.999922" fill-opacity="0.05"/></g></mask><clipPath id="a3932b226d"><path d="M 0.480469 0 L 573.359375 0 L 573.359375 1440 L 0.480469 1440 Z M 0.480469 0 " clip-rule="nonzero"/></clipPath><clipPath id="1ebf41a00b"><rect x="0" width="574" y="0" height="1440"/></clipPath><mask id="0a9f593942"><g filter="url(#4e6784a4fe)"><rect x="-144" width="1728" fill="#000000" y="-143.999994" height="1727.999922" fill-opacity="0.05"/></g></mask><clipPath id="d554e532d4"><path d="M 0.0390625 0 L 573.160156 0 L 573.160156 1440 L 0.0390625 1440 Z M 0.0390625 0 " clip-rule="nonzero"/></clipPath><clipPath id="14bc524c02"><rect x="0" width="574" y="0" height="1440"/></clipPath><mask id="7504062dc2"><g filter="url(#4e6784a4fe)"><rect x="-144" width="1728" fill="#000000" y="-143.999994" height="1727.999922" fill-opacity="0.05"/></g></mask><clipPath id="52692e6939"><path d="M 0.839844 0 L 573.71875 0 L 573.71875 1440 L 0.839844 1440 Z M 0.839844 0 " clip-rule="nonzero"/></clipPath><clipPath id="0be602df0b"><rect x="0" width="574" y="0" height="1440"/></clipPath><mask id="d4014e8823"><g filter="url(#4e6784a4fe)"><rect x="-144" width="1728" fill="#000000" y="-143.999994" height="1727.999922" fill-opacity="0.05"/></g></mask><clipPath id="2b99fb20fe"><path d="M 0.398438 0 L 573.519531 0 L 573.519531 1440 L 0.398438 1440 Z M 0.398438 0 " clip-rule="nonzero"/></clipPath><clipPath id="886b4b3b0d"><rect x="0" width="574" y="0" height="1440"/></clipPath><mask id="89659ab78c"><g filter="url(#4e6784a4fe)"><rect x="-144" width="1728" fill="#000000" y="-143.999994" height="1727.999922" fill-opacity="0.05"/></g></mask><clipPath id="9f565e57ab"><path d="M 0.199219 0 L 573.320312 0 L 573.320312 1440 L 0.199219 1440 Z M 0.199219 0 " clip-rule="nonzero"/></clipPath><clipPath id="dd0eb2c3ac"><rect x="0" width="574" y="0" height="1440"/></clipPath><mask id="daad238e2e"><g filter="url(#4e6784a4fe)"><rect x="-144" width="1728" fill="#000000" y="-143.999994" height="1727.999922" fill-opacity="0.05"/></g></mask><clipPath id="9f71fa0c35"><path d="M 0 0 L 572.878906 0 L 572.878906 1440 L 0 1440 Z M 0 0 " clip-rule="nonzero"/></clipPath><clipPath id="948bb2e77c"><rect x="0" width="573" y="0" height="1440"/></clipPath><mask id="abce6d85ea"><g filter="url(#4e6784a4fe)"><rect x="-144" width="1728" fill="#000000" y="-143.999994" height="1727.999922" fill-opacity="0.05"/></g></mask><clipPath id="9a0244305a"><path d="M 0.558594 0 L 573.679688 0 L 573.679688 1440 L 0.558594 1440 Z M 0.558594 0 " clip-rule="nonzero"/></clipPath><clipPath id="d1eabb45fa"><rect x="0" width="574" y="0" height="1440"/></clipPath><mask id="9e3964f7c4"><g filter="url(#4e6784a4fe)"><rect x="-144" width="1728" fill="#000000" y="-143.999994" height="1727.999922" fill-opacity="0.05"/></g></mask><clipPath id="9aed3ecb5f"><path d="M 0.359375 0 L 573.238281 0 L 573.238281 1440 L 0.359375 1440 Z M 0.359375 0 " clip-rule="nonzero"/></clipPath><clipPath id="cf1bb615d1"><rect x="0" width="574" y="0" height="1440"/></clipPath><mask id="97d18faefe"><g filter="url(#4e6784a4fe)"><rect x="-144" width="1728" fill="#000000" y="-143.999994" height="1727.999922" fill-opacity="0.05"/></g></mask><clipPath id="e5de5396db"><path d="M 0.921875 0 L 574.039062 0 L 574.039062 1440 L 0.921875 1440 Z M 0.921875 0 " clip-rule="nonzero"/></clipPath><clipPath id="0b8ae8de97"><rect x="0" width="575" y="0" height="1440"/></clipPath><mask id="cc8f633038"><g filter="url(#4e6784a4fe)"><rect x="-144" width="1728" fill="#000000" y="-143.999994" height="1727.999922" fill-opacity="0.05"/></g></mask><clipPath id="ec933a9969"><path d="M 0.480469 0 L 573.601562 0 L 573.601562 1440 L 0.480469 1440 Z M 0.480469 0 " clip-rule="nonzero"/></clipPath><clipPath id="1a3b1d3839"><rect x="0" width="574" y="0" height="1440"/></clipPath><mask id="ea1d9ed967"><g filter="url(#4e6784a4fe)"><rect x="-144" width="1728" fill="#000000" y="-143.999994" height="1727.999922" fill-opacity="0.05"/></g></mask><clipPath id="f4657e276a"><path d="M 0.28125 0 L 573.160156 0 L 573.160156 1440 L 0.28125 1440 Z M 0.28125 0 " clip-rule="nonzero"/></clipPath><clipPath id="2472867a42"><rect x="0" width="574" y="0" height="1440"/></clipPath><mask id="9c5fa5d9f6"><g filter="url(#4e6784a4fe)"><rect x="-144" width="1728" fill="#000000" y="-143.999994" height="1727.999922" fill-opacity="0.05"/></g></mask><clipPath id="60c9172042"><path d="M 0.839844 0 L 573.960938 0 L 573.960938 1440 L 0.839844 1440 Z M 0.839844 0 " clip-rule="nonzero"/></clipPath><clipPath id="4b939f5629"><rect x="0" width="574" y="0" height="1440"/></clipPath><mask id="d027a3ab5c"><g filter="url(#4e6784a4fe)"><rect x="-144" width="1728" fill="#000000" y="-143.999994" height="1727.999922" fill-opacity="0.05"/></g></mask><clipPath id="6912e4654f"><path d="M 0.640625 0 L 573.519531 0 L 573.519531 1440 L 0.640625 1440 Z M 0.640625 0 " clip-rule="nonzero"/></clipPath><clipPath id="43a8663b72"><rect x="0" width="574" y="0" height="1440"/></clipPath><mask id="ccd40a81e5"><g filter="url(#4e6784a4fe)"><rect x="-144" width="1728" fill="#000000" y="-143.999994" height="1727.999922" fill-opacity="0.05"/></g></mask><clipPath id="fd7cf02846"><path d="M 0.441406 0 L 573.320312 0 L 573.320312 1440 L 0.441406 1440 Z M 0.441406 0 " clip-rule="nonzero"/></clipPath><clipPath id="e2ebad5957"><rect x="0" width="574" y="0" height="1440"/></clipPath><mask id="3bfb4159a8"><g filter="url(#4e6784a4fe)"><rect x="-144" width="1728" fill="#000000" y="-143.999994" height="1727.999922" fill-opacity="0.05"/></g></mask><clipPath id="770245811f"><path d="M 0 0 L 573.121094 0 L 573.121094 1440 L 0 1440 Z M 0 0 " clip-rule="nonzero"/></clipPath><clipPath id="b66390d620"><rect x="0" width="574" y="0" height="1440"/></clipPath><mask id="868ea94d02"><g filter="url(#4e6784a4fe)"><rect x="-144" width="1728" fill="#000000" y="-143.999994" height="1727.999922" fill-opacity="0.05"/></g></mask><clipPath id="f54cc0d494"><path d="M 0.800781 0 L 573.679688 0 L 573.679688 1440 L 0.800781 1440 Z M 0.800781 0 " clip-rule="nonzero"/></clipPath><clipPath id="068478e1b3"><rect x="0" width="574" y="0" height="1440"/></clipPath><mask id="8276b72d72"><g filter="url(#4e6784a4fe)"><rect x="-144" width="1728" fill="#000000" y="-143.999994" height="1727.999922" fill-opacity="0.05"/></g></mask><clipPath id="35c6af8c6c"><path d="M 0.359375 0 L 573.480469 0 L 573.480469 1440 L 0.359375 1440 Z M 0.359375 0 " clip-rule="nonzero"/></clipPath><clipPath id="268a43e6bd"><rect x="0" width="574" y="0" height="1440"/></clipPath><mask id="9fafada1b3"><g filter="url(#4e6784a4fe)"><rect x="-144" width="1728" fill="#000000" y="-143.999994" height="1727.999922" fill-opacity="0.05"/></g></mask><clipPath id="6b20ba6708"><path d="M 0.160156 0 L 573.039062 0 L 573.039062 1440 L 0.160156 1440 Z M 0.160156 0 " clip-rule="nonzero"/></clipPath><clipPath id="fcd4e415b4"><rect x="0" width="574" y="0" height="1440"/></clipPath><mask id="2213125603"><g filter="url(#4e6784a4fe)"><rect x="-144" width="1728" fill="#000000" y="-143.999994" height="1727.999922" fill-opacity="0.05"/></g></mask><clipPath id="23b7c253ef"><path d="M 0.960938 0 L 573.839844 0 L 573.839844 1440 L 0.960938 1440 Z M 0.960938 0 " clip-rule="nonzero"/></clipPath><clipPath id="e77e461d41"><rect x="0" width="574" y="0" height="1440"/></clipPath><mask id="0fd58b9352"><g filter="url(#4e6784a4fe)"><rect x="-144" width="1728" fill="#000000" y="-143.999994" height="1727.999922" fill-opacity="0.05"/></g></mask><clipPath id="629e0a1e89"><path d="M 0.519531 0 L 573.640625 0 L 573.640625 1440 L 0.519531 1440 Z M 0.519531 0 " clip-rule="nonzero"/></clipPath><clipPath id="db84e513f4"><rect x="0" width="574" y="0" height="1440"/></clipPath><mask id="5f35f2b840"><g filter="url(#4e6784a4fe)"><rect x="-144" width="1728" fill="#000000" y="-143.999994" height="1727.999922" fill-opacity="0.05"/></g></mask><clipPath id="331c42e610"><path d="M 0.320312 0 L 573.199219 0 L 573.199219 1440 L 0.320312 1440 Z M 0.320312 0 " clip-rule="nonzero"/></clipPath><clipPath id="f0b02f9fa1"><rect x="0" width="574" y="0" height="1440"/></clipPath><mask id="ac4615c36f"><g filter="url(#4e6784a4fe)"><rect x="-144" width="1728" fill="#000000" y="-143.999994" height="1727.999922" fill-opacity="0.05"/></g></mask><clipPath id="c501143374"><path d="M 0.878906 0 L 574 0 L 574 1440 L 0.878906 1440 Z M 0.878906 0 " clip-rule="nonzero"/></clipPath><clipPath id="122300fbf9"><rect x="0" width="574" y="0" height="1440"/></clipPath><mask id="c98edc7286"><g filter="url(#4e6784a4fe)"><rect x="-144" width="1728" fill="#000000" y="-143.999994" height="1727.999922" fill-opacity="0.25"/></g></mask><clipPath id="89d595bf06"><path d="M 0.558594 0 L 734 0 L 734 1440 L 0.558594 1440 Z M 0.558594 0 " clip-rule="nonzero"/></clipPath><clipPath id="130b6de59d"><rect x="0" width="734" y="0" height="1440"/></clipPath><mask id="cefa418eb7"><g filter="url(#4e6784a4fe)"><rect x="-144" width="1728" fill="#000000" y="-143.999994" height="1727.999922" fill-opacity="0.25"/></g></mask><clipPath id="cf6591954a"><path d="M 0.761719 0 L 727 0 L 727 1440 L 0.761719 1440 Z M 0.761719 0 " clip-rule="nonzero"/></clipPath><clipPath id="24eb005480"><rect x="0" width="727" y="0" height="1440"/></clipPath><mask id="28a600d9ea"><g filter="url(#4e6784a4fe)"><rect x="-144" width="1728" fill="#000000" y="-143.999994" height="1727.999922" fill-opacity="0.25"/></g></mask><clipPath id="cb17cb3fc8"><path d="M 0.71875 0 L 720 0 L 720 1440 L 0.71875 1440 Z M 0.71875 0 " clip-rule="nonzero"/></clipPath><clipPath id="3744917f10"><rect x="0" width="720" y="0" height="1440"/></clipPath><mask id="54e537bc75"><g filter="url(#4e6784a4fe)"><rect x="-144" width="1728" fill="#000000" y="-143.999994" height="1727.999922" fill-opacity="0.25"/></g></mask><clipPath id="4fc87be2f0"><path d="M 0.921875 0 L 713 0 L 713 1440 L 0.921875 1440 Z M 0.921875 0 " clip-rule="nonzero"/></clipPath><clipPath id="8a0620f1a7"><rect x="0" width="713" y="0" height="1440"/></clipPath><mask id="5d2b279e19"><g filter="url(#4e6784a4fe)"><rect x="-144" width="1728" fill="#000000" y="-143.999994" height="1727.999922" fill-opacity="0.25"/></g></mask><clipPath id="e539159ae7"><path d="M 0.121094 0 L 705 0 L 705 1440 L 0.121094 1440 Z M 0.121094 0 " clip-rule="nonzero"/></clipPath><clipPath id="d15c92ca49"><rect x="0" width="705" y="0" height="1440"/></clipPath><mask id="56e1186722"><g filter="url(#4e6784a4fe)"><rect x="-144" width="1728" fill="#000000" y="-143.999994" height="1727.999922" fill-opacity="0.25"/></g></mask><clipPath id="645e11706c"><path d="M 0.320312 0 L 698 0 L 698 1440 L 0.320312 1440 Z M 0.320312 0 " clip-rule="nonzero"/></clipPath><clipPath id="3c8caf612e"><rect x="0" width="698" y="0" height="1440"/></clipPath><mask id="23e68d952e"><g filter="url(#4e6784a4fe)"><rect x="-144" width="1728" fill="#000000" y="-143.999994" height="1727.999922" fill-opacity="0.25"/></g></mask><clipPath id="049832b17e"><path d="M 0.519531 0 L 691 0 L 691 1440 L 0.519531 1440 Z M 0.519531 0 " clip-rule="nonzero"/></clipPath><clipPath id="f827dc5431"><rect x="0" width="691" y="0" height="1440"/></clipPath><mask id="fd3ce683b9"><g filter="url(#4e6784a4fe)"><rect x="-144" width="1728" fill="#000000" y="-143.999994" height="1727.999922" fill-opacity="0.25"/></g></mask><clipPath id="ba9e81d1ae"><path d="M 0.71875 0 L 684 0 L 684 1440 L 0.71875 1440 Z M 0.71875 0 " clip-rule="nonzero"/></clipPath><clipPath id="1e456e06d4"><rect x="0" width="684" y="0" height="1440"/></clipPath><mask id="c94a0ef1c6"><g filter="url(#4e6784a4fe)"><rect x="-144" width="1728" fill="#000000" y="-143.999994" height="1727.999922" fill-opacity="0.25"/></g></mask><clipPath id="d6a60173dc"><path d="M 0.921875 0 L 677 0 L 677 1440 L 0.921875 1440 Z M 0.921875 0 " clip-rule="nonzero"/></clipPath><clipPath id="6c228e1277"><rect x="0" width="677" y="0" height="1440"/></clipPath><mask id="c07d8aa91b"><g filter="url(#4e6784a4fe)"><rect x="-144" width="1728" fill="#000000" y="-143.999994" height="1727.999922" fill-opacity="0.25"/></g></mask><clipPath id="9f4a8e6830"><path d="M 0.121094 0 L 669 0 L 669 1440 L 0.121094 1440 Z M 0.121094 0 " clip-rule="nonzero"/></clipPath><clipPath id="80ffd01b64"><rect x="0" width="669" y="0" height="1440"/></clipPath><mask id="fe43c14702"><g filter="url(#4e6784a4fe)"><rect x="-144" width="1728" fill="#000000" y="-143.999994" height="1727.999922" fill-opacity="0.25"/></g></mask><clipPath id="69b67fde2e"><path d="M 0.320312 0 L 662 0 L 662 1440 L 0.320312 1440 Z M 0.320312 0 " clip-rule="nonzero"/></clipPath><clipPath id="08ca154e9d"><rect x="0" width="662" y="0" height="1440"/></clipPath></defs><rect x="-144" width="1728" fill="#ffffff" y="-143.999994" height="1727.999922" fill-opacity="1"/><rect x="-144" width="1728" fill="#dbdad3" y="-143.999994" height="1727.999922" fill-opacity="1"/><g mask="url(#57ffd3fd12)"><g transform="matrix(1, 0, 0, 1, 0, -0.000000000000101068)"><g clip-path="url(#9efb8937dd)"><g clip-path="url(#1a81cd58e7)"><g clip-path="url(#fafb2e07d3)"><path fill="#000000" d="M 315.539062 -235.242188 L 397.9375 -205.09375 L -27.230469 956.847656 L -109.628906 926.695312 Z M 315.539062 -235.242188 " fill-opacity="1" fill-rule="nonzero"/></g></g></g></g></g><g mask="url(#eb716042a8)"><g transform="matrix(1, 0, 0, 1, 0, -0.000000000000101068)"><g clip-path="url(#46f64b5522)"><g clip-path="url(#4fe072abcd)"><g clip-path="url(#c93e9d8d27)"><path fill="#000000" d="M 273.386719 -254.1875 L 290.5 -247.925781 L -134.703125 914.109375 L -151.816406 907.847656 Z M 273.386719 -254.1875 " fill-opacity="1" fill-rule="nonzero"/></g></g></g></g></g><g mask="url(#effd77dec6)"><g transform="matrix(1, 0, 0, 1, 1031, 44)"><g clip-path="url(#9b8d7cfa20)"><g clip-path="url(#4e4fa0fd58)"><g clip-path="url(#8fc879fc41)"><path fill="#000000" d="M 544.460938 0.789062 L 572.152344 10.921875 L 28.445312 1496.8125 L 0.757812 1486.679688 Z M 544.460938 0.789062 " fill-opacity="1" fill-rule="nonzero"/></g></g></g></g></g><g mask="url(#ec85d6c696)"><g transform="matrix(1, 0, 0, 1, 1209, 503)"><g clip-path="url(#fb4760803f)"><g clip-path="url(#c858748c49)"><g clip-path="url(#380a7d8ba7)"><path fill="#ffffff" d="M 426.203125 0.910156 L 831.898438 149.359375 L 406.847656 1310.972656 L 1.15625 1162.523438 Z M 426.203125 0.910156 " fill-opacity="1" fill-rule="nonzero"/></g></g></g></g></g><g mask="url(#5e5b477cdc)"><g transform="matrix(1, 0, 0, 1, 367, -0.000000000000101068)"><g clip-path="url(#f45d96a5c6)"><g clip-path="url(#221718146b)"><g clip-path="url(#062c5e99c1)"><path fill="#ffffff" d="M 617.304688 -169.40625 L 687.019531 -143.894531 L 70.320312 1541.472656 L 0.609375 1515.960938 Z M 617.304688 -169.40625 " fill-opacity="1" fill-rule="nonzero"/></g></g></g></g></g><g mask="url(#62dfa1e791)"><g transform="matrix(1, 0, 0, 1, 83, -0.000000000000101068)"><g clip-path="url(#09d699f872)"><g clip-path="url(#0ab0eb274b)"><path stroke-linecap="butt" transform="matrix(0.254047, -0.705663, 0.705663, 0.254047, 0.967213, 1448.192542)" fill="none" stroke-linejoin="miter" d="M 0.00115023 0.998168 L 2246.422212 1.001158 " stroke="#000000" stroke-width="2" stroke-opacity="1" stroke-miterlimit="4"/></g></g></g></g><g mask="url(#ba858357f6)"><g transform="matrix(1, 0, 0, 1, 88, -0.000000000000101068)"><g clip-path="url(#bdb40c2193)"><g clip-path="url(#29f736e71a)"><path stroke-linecap="butt" transform="matrix(0.254047, -0.705663, 0.705663, 0.254047, 0.669361, 1457.340333)" fill="none" stroke-linejoin="miter" d="M 0.000780688 0.999686 L 2246.421843 1.002675 " stroke="#000000" stroke-width="2" stroke-opacity="1" stroke-miterlimit="4"/></g></g></g></g><g mask="url(#a754f83f5f)"><g transform="matrix(1, 0, 0, 1, 92, -0.000000000000101068)"><g clip-path="url(#2b865090b5)"><g clip-path="url(#e62f62516d)"><path stroke-linecap="butt" transform="matrix(0.254047, -0.705663, 0.705663, 0.254047, 1.371509, 1466.488101)" fill="none" stroke-linejoin="miter" d="M 0.000381032 1.001214 L 2246.419679 0.999303 " stroke="#000000" stroke-width="2" stroke-opacity="1" stroke-miterlimit="4"/></g></g></g></g><g mask="url(#18adfc0836)"><g transform="matrix(1, 0, 0, 1, 97, -0.000000000000101068)"><g clip-path="url(#bdfac2ce41)"><g clip-path="url(#e9618dbd4c)"><path stroke-linecap="butt" transform="matrix(0.254047, -0.705663, 0.705663, 0.254047, 1.073657, 1475.635868)" fill="none" stroke-linejoin="miter" d="M -0.0000186176 1.002742 L 2246.42418 0.999067 " stroke="#000000" stroke-width="2" stroke-opacity="1" stroke-miterlimit="4"/></g></g></g></g><g mask="url(#ceb3f95aa3)"><g transform="matrix(1, 0, 0, 1, 102, -0.000000000000101068)"><g clip-path="url(#1ebf41a00b)"><g clip-path="url(#a3932b226d)"><path stroke-linecap="butt" transform="matrix(0.254047, -0.705663, 0.705663, 0.254047, 0.775856, 1484.783635)" fill="none" stroke-linejoin="miter" d="M -0.00220564 0.999306 L 2246.423757 1.000531 " stroke="#000000" stroke-width="2" stroke-opacity="1" stroke-miterlimit="4"/></g></g></g></g><g mask="url(#0a9f593942)"><g transform="matrix(1, 0, 0, 1, 107, -0.000000000000101068)"><g clip-path="url(#14bc524c02)"><g clip-path="url(#d554e532d4)"><path stroke-linecap="butt" transform="matrix(0.254047, -0.705663, 0.705663, 0.254047, 0.478004, 1493.931402)" fill="none" stroke-linejoin="miter" d="M 0.00229514 0.99907 L 2246.423357 1.002059 " stroke="#000000" stroke-width="2" stroke-opacity="1" stroke-miterlimit="4"/></g></g></g></g><g mask="url(#7504062dc2)"><g transform="matrix(1, 0, 0, 1, 111, -0.000000000000101068)"><g clip-path="url(#0be602df0b)"><g clip-path="url(#52692e6939)"><path stroke-linecap="butt" transform="matrix(0.254047, -0.705663, 0.705663, 0.254047, 1.180152, 1503.079194)" fill="none" stroke-linejoin="miter" d="M 0.0019256 1.000588 L 2246.421224 0.998677 " stroke="#000000" stroke-width="2" stroke-opacity="1" stroke-miterlimit="4"/></g></g></g></g><g mask="url(#d4014e8823)"><g transform="matrix(1, 0, 0, 1, 116, -0.000000000000101068)"><g clip-path="url(#886b4b3b0d)"><g clip-path="url(#2b99fb20fe)"><path stroke-linecap="butt" transform="matrix(0.254047, -0.705663, 0.705663, 0.254047, 0.8823, 1512.226961)" fill="none" stroke-linejoin="miter" d="M 0.00152594 1.002116 L 2246.420824 1.000205 " stroke="#000000" stroke-width="2" stroke-opacity="1" stroke-miterlimit="4"/></g></g></g></g><g mask="url(#89659ab78c)"><g transform="matrix(1, 0, 0, 1, 121, -0.000000000000101068)"><g clip-path="url(#dd0eb2c3ac)"><g clip-path="url(#9f565e57ab)"><path stroke-linecap="butt" transform="matrix(0.254047, -0.705663, 0.705663, 0.254047, 0.584448, 1521.374608)" fill="none" stroke-linejoin="miter" d="M -0.000788469 0.998798 L 2246.420274 1.001787 " stroke="#000000" stroke-width="2" stroke-opacity="1" stroke-miterlimit="4"/></g></g></g></g><g mask="url(#daad238e2e)"><g transform="matrix(1, 0, 0, 1, 126, -0.000000000000101068)"><g clip-path="url(#948bb2e77c)"><g clip-path="url(#9f71fa0c35)"><path stroke-linecap="butt" transform="matrix(0.254047, -0.705663, 0.705663, 0.254047, 0.286633, 1530.522375)" fill="none" stroke-linejoin="miter" d="M -0.00120466 1.000281 L 2246.424758 1.001506 " stroke="#000000" stroke-width="2" stroke-opacity="1" stroke-miterlimit="4"/></g></g></g></g><g mask="url(#abce6d85ea)"><g transform="matrix(1, 0, 0, 1, 130, -0.000000000000101068)"><g clip-path="url(#d1eabb45fa)"><g clip-path="url(#9a0244305a)"><path stroke-linecap="butt" transform="matrix(0.254047, -0.705663, 0.705663, 0.254047, 0.988781, 1539.670166)" fill="none" stroke-linejoin="miter" d="M -0.0015742 1.001798 L 2246.422624 0.998123 " stroke="#000000" stroke-width="2" stroke-opacity="1" stroke-miterlimit="4"/></g></g></g></g><g mask="url(#9e3964f7c4)"><g transform="matrix(1, 0, 0, 1, 135, -0.000000000000101068)"><g clip-path="url(#cf1bb615d1)"><g clip-path="url(#9aed3ecb5f)"><path stroke-linecap="butt" transform="matrix(0.254047, -0.705663, 0.705663, 0.254047, 0.690929, 1548.817934)" fill="none" stroke-linejoin="miter" d="M 0.00292658 1.001562 L 2246.422225 0.999651 " stroke="#000000" stroke-width="2" stroke-opacity="1" stroke-miterlimit="4"/></g></g></g></g><g mask="url(#97d18faefe)"><g transform="matrix(1, 0, 0, 1, 139, -0.000000000000101068)"><g clip-path="url(#0b8ae8de97)"><g clip-path="url(#e5de5396db)"><path stroke-linecap="butt" transform="matrix(0.254047, -0.705663, 0.705663, 0.254047, 1.393077, 1557.965701)" fill="none" stroke-linejoin="miter" d="M 0.00076271 0.99819 L 2246.421825 1.001179 " stroke="#000000" stroke-width="2" stroke-opacity="1" stroke-miterlimit="4"/></g></g></g></g><g mask="url(#cc8f633038)"><g transform="matrix(1, 0, 0, 1, 180, -0.000000000000101068)"><g clip-path="url(#1a3b1d3839)"><g clip-path="url(#ec933a9969)"><path stroke-linecap="butt" transform="matrix(0.254047, -0.705663, 0.705663, 0.254047, 0.895798, 1466.742165)" fill="none" stroke-linejoin="miter" d="M 0.000194208 1.000074 L 2246.419492 0.998163 " stroke="#000000" stroke-width="2" stroke-opacity="1" stroke-miterlimit="4"/></g></g></g></g><g mask="url(#ea1d9ed967)"><g transform="matrix(1, 0, 0, 1, 185, -0.000000000000101068)"><g clip-path="url(#2472867a42)"><g clip-path="url(#f4657e276a)"><path stroke-linecap="butt" transform="matrix(0.254047, -0.705663, 0.705663, 0.254047, 0.597946, 1475.889932)" fill="none" stroke-linejoin="miter" d="M -0.000205442 1.001603 L 2246.419093 0.999692 " stroke="#000000" stroke-width="2" stroke-opacity="1" stroke-miterlimit="4"/></g></g></g></g><g mask="url(#9c5fa5d9f6)"><g transform="matrix(1, 0, 0, 1, 189, -0.000000000000101068)"><g clip-path="url(#4b939f5629)"><g clip-path="url(#60c9172042)"><path stroke-linecap="butt" transform="matrix(0.254047, -0.705663, 0.705663, 0.254047, 1.300123, 1485.037699)" fill="none" stroke-linejoin="miter" d="M -0.00238255 0.998194 L 2246.42358 0.999419 " stroke="#000000" stroke-width="2" stroke-opacity="1" stroke-miterlimit="4"/></g></g></g></g><g mask="url(#d027a3ab5c)"><g transform="matrix(1, 0, 0, 1, 194, -0.000000000000101068)"><g clip-path="url(#43a8663b72)"><g clip-path="url(#6912e4654f)"><path stroke-linecap="butt" transform="matrix(0.254047, -0.705663, 0.705663, 0.254047, 1.002257, 1494.185466)" fill="none" stroke-linejoin="miter" d="M -0.00277558 0.99974 L 2246.423187 1.000966 " stroke="#000000" stroke-width="2" stroke-opacity="1" stroke-miterlimit="4"/></g></g></g></g><g mask="url(#ccd40a81e5)"><g transform="matrix(1, 0, 0, 1, 199, -0.000000000000101068)"><g clip-path="url(#e2ebad5957)"><g clip-path="url(#fd7cf02846)"><path stroke-linecap="butt" transform="matrix(0.254047, -0.705663, 0.705663, 0.254047, 0.704434, 1503.333258)" fill="none" stroke-linejoin="miter" d="M 0.00174208 0.999457 L 2246.42104 0.997546 " stroke="#000000" stroke-width="2" stroke-opacity="1" stroke-miterlimit="4"/></g></g></g></g><g mask="url(#3bfb4159a8)"><g transform="matrix(1, 0, 0, 1, 204, -0.000000000000101068)"><g clip-path="url(#b66390d620)"><g clip-path="url(#770245811f)"><path stroke-linecap="butt" transform="matrix(0.254047, -0.705663, 0.705663, 0.254047, 0.406582, 1512.480905)" fill="none" stroke-linejoin="miter" d="M 0.00119188 1.00104 L 2246.42049 0.999129 " stroke="#000000" stroke-width="2" stroke-opacity="1" stroke-miterlimit="4"/></g></g></g></g><g mask="url(#868ea94d02)"><g transform="matrix(1, 0, 0, 1, 208, -0.000000000000101068)"><g clip-path="url(#068478e1b3)"><g clip-path="url(#f54cc0d494)"><path stroke-linecap="butt" transform="matrix(0.254047, -0.705663, 0.705663, 0.254047, 1.108745, 1521.628672)" fill="none" stroke-linejoin="miter" d="M -0.000978602 0.997649 L 2246.420084 1.000639 " stroke="#000000" stroke-width="2" stroke-opacity="1" stroke-miterlimit="4"/></g></g></g></g><g mask="url(#8276b72d72)"><g transform="matrix(1, 0, 0, 1, 213, -0.000000000000101068)"><g clip-path="url(#268a43e6bd)"><g clip-path="url(#35c6af8c6c)"><path stroke-linecap="butt" transform="matrix(0.254047, -0.705663, 0.705663, 0.254047, 0.810893, 1530.776439)" fill="none" stroke-linejoin="miter" d="M -0.00137825 0.999177 L 2246.424584 1.000403 " stroke="#000000" stroke-width="2" stroke-opacity="1" stroke-miterlimit="4"/></g></g></g></g><g mask="url(#9fafada1b3)"><g transform="matrix(1, 0, 0, 1, 218, -0.000000000000101068)"><g clip-path="url(#fcd4e415b4)"><g clip-path="url(#6b20ba6708)"><path stroke-linecap="butt" transform="matrix(0.254047, -0.705663, 0.705663, 0.254047, 0.51307, 1539.92435)" fill="none" stroke-linejoin="miter" d="M -0.00161049 1.000604 L 2246.424352 1.001829 " stroke="#000000" stroke-width="2" stroke-opacity="1" stroke-miterlimit="4"/></g></g></g></g><g mask="url(#2213125603)"><g transform="matrix(1, 0, 0, 1, 222, -0.000000000000101068)"><g clip-path="url(#e77e461d41)"><g clip-path="url(#23b7c253ef)"><path stroke-linecap="butt" transform="matrix(0.254047, -0.705663, 0.705663, 0.254047, 1.215218, 1549.072118)" fill="none" stroke-linejoin="miter" d="M 0.00289029 1.000368 L 2246.422188 0.998457 " stroke="#000000" stroke-width="2" stroke-opacity="1" stroke-miterlimit="4"/></g></g></g></g><g mask="url(#0fd58b9352)"><g transform="matrix(1, 0, 0, 1, 227, -0.000000000000101068)"><g clip-path="url(#db84e513f4)"><g clip-path="url(#629e0a1e89)"><path stroke-linecap="butt" transform="matrix(0.254047, -0.705663, 0.705663, 0.254047, 0.917381, 1558.219885)" fill="none" stroke-linejoin="miter" d="M 0.000719807 0.996978 L 2246.421782 0.999967 " stroke="#000000" stroke-width="2" stroke-opacity="1" stroke-miterlimit="4"/></g></g></g></g><g mask="url(#5f35f2b840)"><g transform="matrix(1, 0, 0, 1, 232, -0.000000000000101068)"><g clip-path="url(#f0b02f9fa1)"><g clip-path="url(#331c42e610)"><path stroke-linecap="butt" transform="matrix(0.254047, -0.705663, 0.705663, 0.254047, 0.619529, 1567.367652)" fill="none" stroke-linejoin="miter" d="M 0.000320153 0.998506 L 2246.421382 1.001495 " stroke="#000000" stroke-width="2" stroke-opacity="1" stroke-miterlimit="4"/></g></g></g></g><g mask="url(#ac4615c36f)"><g transform="matrix(1, 0, 0, 1, 236, -0.000000000000101068)"><g clip-path="url(#122300fbf9)"><g clip-path="url(#c501143374)"><path stroke-linecap="butt" transform="matrix(0.254047, -0.705663, 0.705663, 0.254047, 1.321677, 1576.515419)" fill="none" stroke-linejoin="miter" d="M -0.0000795002 1.000034 L 2246.420983 1.003024 " stroke="#000000" stroke-width="2" stroke-opacity="1" stroke-miterlimit="4"/></g></g></g></g><g mask="url(#c98edc7286)"><g transform="matrix(1, 0, 0, 1, 706, -0.000000000000101068)"><g clip-path="url(#130b6de59d)"><g clip-path="url(#89d595bf06)"><path stroke-linecap="butt" transform="matrix(0.254047, -0.705663, 0.705663, 0.254047, 1.09042, 1644.962189)" fill="none" stroke-linejoin="miter" d="M -0.000829993 1.499623 L 3433.20222 1.498907 " stroke="#ffffff" stroke-width="3" stroke-opacity="1" stroke-miterlimit="4"/></g></g></g></g><g mask="url(#cefa418eb7)"><g transform="matrix(1, 0, 0, 1, 713, -0.000000000000101068)"><g clip-path="url(#24eb005480)"><g clip-path="url(#cf6591954a)"><path stroke-linecap="butt" transform="matrix(0.254047, -0.705663, 0.705663, 0.254047, 1.276709, 1658.942644)" fill="none" stroke-linejoin="miter" d="M -0.000300322 1.501149 L 3433.202749 1.500433 " stroke="#ffffff" stroke-width="3" stroke-opacity="1" stroke-miterlimit="4"/></g></g></g></g><g mask="url(#28a600d9ea)"><g transform="matrix(1, 0, 0, 1, 720, -0.000000000000101068)"><g clip-path="url(#3744917f10)"><g clip-path="url(#cb17cb3fc8)"><path stroke-linecap="butt" transform="matrix(0.254047, -0.705663, 0.705663, 0.254047, 1.462997, 1672.923123)" fill="none" stroke-linejoin="miter" d="M 0.000259457 1.502665 L 3433.203309 1.501948 " stroke="#ffffff" stroke-width="3" stroke-opacity="1" stroke-miterlimit="4"/></g></g></g></g><g mask="url(#54e537bc75)"><g transform="matrix(1, 0, 0, 1, 727, -0.000000000000101068)"><g clip-path="url(#8a0620f1a7)"><g clip-path="url(#4fc87be2f0)"><path stroke-linecap="butt" transform="matrix(0.254047, -0.705663, 0.705663, 0.254047, 1.649286, 1686.903578)" fill="none" stroke-linejoin="miter" d="M -0.000975089 1.49929 L 3433.202075 1.498574 " stroke="#ffffff" stroke-width="3" stroke-opacity="1" stroke-miterlimit="4"/></g></g></g></g><g mask="url(#5d2b279e19)"><g transform="matrix(1, 0, 0, 1, 735, -0.000000000000101068)"><g clip-path="url(#d15c92ca49)"><g clip-path="url(#e539159ae7)"><path stroke-linecap="butt" transform="matrix(0.254047, -0.705663, 0.705663, 0.254047, 0.835574, 1700.884296)" fill="none" stroke-linejoin="miter" d="M -0.000114227 1.500697 L 3433.202935 1.499981 " stroke="#ffffff" stroke-width="3" stroke-opacity="1" stroke-miterlimit="4"/></g></g></g></g><g mask="url(#56e1186722)"><g transform="matrix(1, 0, 0, 1, 742, -0.000000000000101068)"><g clip-path="url(#3c8caf612e)"><g clip-path="url(#645e11706c)"><path stroke-linecap="butt" transform="matrix(0.254047, -0.705663, 0.705663, 0.254047, 1.021921, 1714.864751)" fill="none" stroke-linejoin="miter" d="M 0.000388985 1.50215 L 3433.203439 1.501434 " stroke="#ffffff" stroke-width="3" stroke-opacity="1" stroke-miterlimit="4"/></g></g></g></g><g mask="url(#23e68d952e)"><g transform="matrix(1, 0, 0, 1, 749, -0.000000000000101068)"><g clip-path="url(#f827dc5431)"><g clip-path="url(#049832b17e)"><path stroke-linecap="butt" transform="matrix(0.254047, -0.705663, 0.705663, 0.254047, 1.20821, 1728.84523)" fill="none" stroke-linejoin="miter" d="M -0.000815453 1.498765 L 3433.202234 1.498049 " stroke="#ffffff" stroke-width="3" stroke-opacity="1" stroke-miterlimit="4"/></g></g></g></g><g mask="url(#fd3ce683b9)"><g transform="matrix(1, 0, 0, 1, 756, -0.000000000000101068)"><g clip-path="url(#1e456e06d4)"><g clip-path="url(#ba9e81d1ae)"><path stroke-linecap="butt" transform="matrix(0.254047, -0.705663, 0.705663, 0.254047, 1.394498, 1742.825925)" fill="none" stroke-linejoin="miter" d="M 0.0000153007 1.500183 L 3433.203065 1.499466 " stroke="#ffffff" stroke-width="3" stroke-opacity="1" stroke-miterlimit="4"/></g></g></g></g><g mask="url(#c94a0ef1c6)"><g transform="matrix(1, 0, 0, 1, 763, -0.000000000000101068)"><g clip-path="url(#6c228e1277)"><g clip-path="url(#d6a60173dc)"><path stroke-linecap="butt" transform="matrix(0.254047, -0.705663, 0.705663, 0.254047, 1.580786, 1756.806379)" fill="none" stroke-linejoin="miter" d="M 0.000544972 1.501709 L 3433.203595 1.500993 " stroke="#ffffff" stroke-width="3" stroke-opacity="1" stroke-miterlimit="4"/></g></g></g></g><g mask="url(#c07d8aa91b)"><g transform="matrix(1, 0, 0, 1, 771, -0.000000000000101068)"><g clip-path="url(#80ffd01b64)"><g clip-path="url(#9f4a8e6830)"><path stroke-linecap="butt" transform="matrix(0.254047, -0.705663, 0.705663, 0.254047, 0.767075, 1770.786858)" fill="none" stroke-linejoin="miter" d="M -0.000659467 1.498324 L 3433.20239 1.497608 " stroke="#ffffff" stroke-width="3" stroke-opacity="1" stroke-miterlimit="4"/></g></g></g></g><g mask="url(#fe43c14702)"><g transform="matrix(1, 0, 0, 1, 778, -0.000000000000101068)"><g clip-path="url(#08ca154e9d)"><g clip-path="url(#69b67fde2e)"><path stroke-linecap="butt" transform="matrix(0.254047, -0.705663, 0.705663, 0.254047, 0.953422, 1784.767337)" fill="none" stroke-linejoin="miter" d="M -0.000126146 1.499766 L 3433.202924 1.49905 " stroke="#ffffff" stroke-width="3" stroke-opacity="1" stroke-miterlimit="4"/></g></g></g></g></svg>