<svg xmlns="http://www.w3.org/2000/svg" xmlns:xlink="http://www.w3.org/1999/xlink" width="1920" zoomAndPan="magnify" viewBox="0 0 1440 1439.999935" height="1920" preserveAspectRatio="xMidYMid meet" version="1.0"><defs><filter x="0%" y="0%" width="100%" height="100%" id="2171b49732"><feColorMatrix values="0 0 0 0 1 0 0 0 0 1 0 0 0 0 1 0 0 0 1 0" color-interpolation-filters="sRGB"/></filter><mask id="a252b83e9e"><g filter="url(#2171b49732)"><rect x="-144" width="1728" fill="#000000" y="-143.999994" height="1727.999922" fill-opacity="0.1"/></g></mask><clipPath id="1dd93b80c3"><path d="M 0.601562 1 L 405 1 L 405 902 L 0.601562 902 Z M 0.601562 1 " clip-rule="nonzero"/></clipPath><clipPath id="605dbd8cef"><path d="M 83.183594 1193.152344 L 0.785156 1163.003906 L 425.984375 0.980469 L 508.382812 31.132812 Z M 83.183594 1193.152344 " clip-rule="nonzero"/></clipPath><clipPath id="f5907a1db9"><rect x="0" width="405" y="0" height="902"/></clipPath><mask id="d6e2a8f7c8"><g filter="url(#2171b49732)"><rect x="-144" width="1728" fill="#000000" y="-143.999994" height="1727.999922" fill-opacity="0.1"/></g></mask><clipPath id="ada5d57dac"><path d="M 0.121094 0.761719 L 297 0.761719 L 297 859 L 0.121094 859 Z M 0.121094 0.761719 " clip-rule="nonzero"/></clipPath><clipPath id="9ac72a481d"><path d="M 17.335938 1169.097656 L 0.21875 1162.835938 L 425.417969 0.8125 L 442.535156 7.078125 Z M 17.335938 1169.097656 " clip-rule="nonzero"/></clipPath><clipPath id="1e09ee9db9"><rect x="0" width="297" y="0" height="859"/></clipPath><mask id="e75ffe6b20"><g filter="url(#2171b49732)"><rect x="-144" width="1728" fill="#000000" y="-143.999994" height="1727.999922" fill-opacity="0.05"/></g></mask><clipPath id="b858967acc"><path d="M 0 0 L 463 0 L 463 1414.558594 L 0 1414.558594 Z M 0 0 " clip-rule="nonzero"/></clipPath><clipPath id="fdfd7d1ca6"><path d="M -80.734375 1414.382812 L -108.425781 1404.25 L 435.277344 -81.636719 L 462.96875 -71.503906 Z M -80.734375 1414.382812 " clip-rule="nonzero"/></clipPath><clipPath id="968f36a3b6"><rect x="0" width="464" y="0" height="1415"/></clipPath><mask id="51f4d47edd"><g filter="url(#2171b49732)"><rect x="-144" width="1728" fill="#000000" y="-143.999994" height="1727.999922" fill-opacity="0.08"/></g></mask><clipPath id="bea1d64aac"><path d="M 0 0 L 293 0 L 293 992 L 0 992 Z M 0 0 " clip-rule="nonzero"/></clipPath><clipPath id="38cd458b4d"><path d="M -132.152344 992 L -537.847656 843.554688 L -112.648438 -318.46875 L 293.046875 -170.019531 Z M -132.152344 992 " clip-rule="nonzero"/></clipPath><clipPath id="114d1a9422"><rect x="0" width="294" y="0" height="993"/></clipPath><mask id="d5a9e68b5a"><g filter="url(#2171b49732)"><rect x="-144" width="1728" fill="#000000" y="-143.999994" height="1727.999922" fill-opacity="0.1"/></g></mask><clipPath id="302685168c"><path d="M 0.71875 0 L 687.359375 0 L 687.359375 1440 L 0.71875 1440 Z M 0.71875 0 " clip-rule="nonzero"/></clipPath><clipPath id="4ff0a36856"><path d="M 70.558594 1658.652344 L 0.847656 1633.144531 L 617.511719 -52.136719 L 687.222656 -26.628906 Z M 70.558594 1658.652344 " clip-rule="nonzero"/></clipPath><clipPath id="0a750cb301"><rect x="0" width="688" y="0" height="1440"/></clipPath><mask id="b3f8f54125"><g filter="url(#2171b49732)"><rect x="-144" width="1728" fill="#000000" y="-143.999994" height="1727.999922" fill-opacity="0.08"/></g></mask><clipPath id="145b212ff4"><path d="M 0.359375 0 L 471 0 L 471 1440 L 0.359375 1440 Z M 0.359375 0 " clip-rule="nonzero"/></clipPath><clipPath id="f23f7fa45c"><rect x="0" width="471" y="0" height="1440"/></clipPath><mask id="b26452de43"><g filter="url(#2171b49732)"><rect x="-144" width="1728" fill="#000000" y="-143.999994" height="1727.999922" fill-opacity="0.08"/></g></mask><clipPath id="9fe2b6a3df"><path d="M 0.558594 0 L 476 0 L 476 1440 L 0.558594 1440 Z M 0.558594 0 " clip-rule="nonzero"/></clipPath><clipPath id="9424a33a8c"><rect x="0" width="476" y="0" height="1440"/></clipPath><mask id="70c355e721"><g filter="url(#2171b49732)"><rect x="-144" width="1728" fill="#000000" y="-143.999994" height="1727.999922" fill-opacity="0.08"/></g></mask><clipPath id="4fc1ef3c8c"><path d="M 0 0 L 480 0 L 480 1440 L 0 1440 Z M 0 0 " clip-rule="nonzero"/></clipPath><clipPath id="e661791d15"><rect x="0" width="480" y="0" height="1440"/></clipPath><mask id="7f4363cb6d"><g filter="url(#2171b49732)"><rect x="-144" width="1728" fill="#000000" y="-143.999994" height="1727.999922" fill-opacity="0.08"/></g></mask><clipPath id="0a38d56892"><path d="M 0.199219 0 L 485 0 L 485 1440 L 0.199219 1440 Z M 0.199219 0 " clip-rule="nonzero"/></clipPath><clipPath id="d4893939cf"><rect x="0" width="485" y="0" height="1440"/></clipPath><mask id="d9ceb10b5e"><g filter="url(#2171b49732)"><rect x="-144" width="1728" fill="#000000" y="-143.999994" height="1727.999922" fill-opacity="0.08"/></g></mask><clipPath id="3a3b15eb4d"><path d="M 0.640625 0 L 490 0 L 490 1440 L 0.640625 1440 Z M 0.640625 0 " clip-rule="nonzero"/></clipPath><clipPath id="b0f1413ac4"><rect x="0" width="490" y="0" height="1440"/></clipPath><mask id="a0534f9ac4"><g filter="url(#2171b49732)"><rect x="-144" width="1728" fill="#000000" y="-143.999994" height="1727.999922" fill-opacity="0.08"/></g></mask><clipPath id="1cff2ba10d"><path d="M 0.839844 0 L 495 0 L 495 1440 L 0.839844 1440 Z M 0.839844 0 " clip-rule="nonzero"/></clipPath><clipPath id="0b53d4cbc8"><rect x="0" width="495" y="0" height="1440"/></clipPath><mask id="ab2f4ff108"><g filter="url(#2171b49732)"><rect x="-144" width="1728" fill="#000000" y="-143.999994" height="1727.999922" fill-opacity="0.08"/></g></mask><clipPath id="1b7eb3c356"><path d="M 0.0390625 0 L 499 0 L 499 1440 L 0.0390625 1440 Z M 0.0390625 0 " clip-rule="nonzero"/></clipPath><clipPath id="826c56bdf8"><rect x="0" width="499" y="0" height="1440"/></clipPath><mask id="244cdf89f3"><g filter="url(#2171b49732)"><rect x="-144" width="1728" fill="#000000" y="-143.999994" height="1727.999922" fill-opacity="0.08"/></g></mask><clipPath id="07eb7ff461"><path d="M 0.480469 0 L 504 0 L 504 1440 L 0.480469 1440 Z M 0.480469 0 " clip-rule="nonzero"/></clipPath><clipPath id="e85879e032"><rect x="0" width="504" y="0" height="1440"/></clipPath><mask id="7f651fb499"><g filter="url(#2171b49732)"><rect x="-144" width="1728" fill="#000000" y="-143.999994" height="1727.999922" fill-opacity="0.08"/></g></mask><clipPath id="7b1fdbac09"><path d="M 0.679688 0 L 509 0 L 509 1440 L 0.679688 1440 Z M 0.679688 0 " clip-rule="nonzero"/></clipPath><clipPath id="bd82cb64ed"><rect x="0" width="509" y="0" height="1440"/></clipPath><mask id="69b5481134"><g filter="url(#2171b49732)"><rect x="-144" width="1728" fill="#000000" y="-143.999994" height="1727.999922" fill-opacity="0.08"/></g></mask><clipPath id="848ead8a2d"><path d="M 0.121094 0 L 513 0 L 513 1440 L 0.121094 1440 Z M 0.121094 0 " clip-rule="nonzero"/></clipPath><clipPath id="ee7d75ead5"><rect x="0" width="513" y="0" height="1440"/></clipPath><mask id="9817c4613b"><g filter="url(#2171b49732)"><rect x="-144" width="1728" fill="#000000" y="-143.999994" height="1727.999922" fill-opacity="0.08"/></g></mask><clipPath id="6b0ae26168"><path d="M 0.320312 0 L 518 0 L 518 1440 L 0.320312 1440 Z M 0.320312 0 " clip-rule="nonzero"/></clipPath><clipPath id="79522919d7"><rect x="0" width="518" y="0" height="1440"/></clipPath><mask id="6e048919a6"><g filter="url(#2171b49732)"><rect x="-144" width="1728" fill="#000000" y="-143.999994" height="1727.999922" fill-opacity="0.08"/></g></mask><clipPath id="b5d1c348c8"><path d="M 0.519531 0 L 523 0 L 523 1440 L 0.519531 1440 Z M 0.519531 0 " clip-rule="nonzero"/></clipPath><clipPath id="b6c20ed6e6"><rect x="0" width="523" y="0" height="1440"/></clipPath><mask id="c13a9399d8"><g filter="url(#2171b49732)"><rect x="-144" width="1728" fill="#000000" y="-143.999994" height="1727.999922" fill-opacity="0.08"/></g></mask><clipPath id="73a6eb4904"><path d="M 0.960938 0 L 528 0 L 528 1440 L 0.960938 1440 Z M 0.960938 0 " clip-rule="nonzero"/></clipPath><clipPath id="8bff458eb6"><rect x="0" width="528" y="0" height="1440"/></clipPath><mask id="df57eb97c8"><g filter="url(#2171b49732)"><rect x="-144" width="1728" fill="#000000" y="-143.999994" height="1727.999922" fill-opacity="0.08"/></g></mask><clipPath id="c9b94c7e1c"><path d="M 0.398438 0 L 568 0 L 568 1440 L 0.398438 1440 Z M 0.398438 0 " clip-rule="nonzero"/></clipPath><clipPath id="800514dd72"><rect x="0" width="568" y="0" height="1440"/></clipPath><mask id="2038706514"><g filter="url(#2171b49732)"><rect x="-144" width="1728" fill="#000000" y="-143.999994" height="1727.999922" fill-opacity="0.08"/></g></mask><clipPath id="03653cb737"><path d="M 0.601562 0 L 573 0 L 573 1440 L 0.601562 1440 Z M 0.601562 0 " clip-rule="nonzero"/></clipPath><clipPath id="f1195eaba1"><rect x="0" width="573" y="0" height="1440"/></clipPath><mask id="34c54e03d7"><g filter="url(#2171b49732)"><rect x="-144" width="1728" fill="#000000" y="-143.999994" height="1727.999922" fill-opacity="0.08"/></g></mask><clipPath id="0c47bf3f81"><path d="M 0.0390625 0 L 572.917969 0 L 572.917969 1440 L 0.0390625 1440 Z M 0.0390625 0 " clip-rule="nonzero"/></clipPath><clipPath id="652f37566b"><rect x="0" width="573" y="0" height="1440"/></clipPath><mask id="2dcabefef2"><g filter="url(#2171b49732)"><rect x="-144" width="1728" fill="#000000" y="-143.999994" height="1727.999922" fill-opacity="0.08"/></g></mask><clipPath id="367450e788"><path d="M 0.238281 0 L 573.359375 0 L 573.359375 1440 L 0.238281 1440 Z M 0.238281 0 " clip-rule="nonzero"/></clipPath><clipPath id="2c1763d66c"><rect x="0" width="574" y="0" height="1440"/></clipPath><mask id="f16cda9969"><g filter="url(#2171b49732)"><rect x="-144" width="1728" fill="#000000" y="-143.999994" height="1727.999922" fill-opacity="0.08"/></g></mask><clipPath id="171220c728"><path d="M 0.679688 0 L 573.558594 0 L 573.558594 1440 L 0.679688 1440 Z M 0.679688 0 " clip-rule="nonzero"/></clipPath><clipPath id="8bb052e233"><rect x="0" width="574" y="0" height="1440"/></clipPath><mask id="a160b77bc2"><g filter="url(#2171b49732)"><rect x="-144" width="1728" fill="#000000" y="-143.999994" height="1727.999922" fill-opacity="0.08"/></g></mask><clipPath id="1a11b2cafe"><path d="M 0.878906 0 L 574 0 L 574 1440 L 0.878906 1440 Z M 0.878906 0 " clip-rule="nonzero"/></clipPath><clipPath id="ff12cee3d4"><rect x="0" width="574" y="0" height="1440"/></clipPath><mask id="19517d59ac"><g filter="url(#2171b49732)"><rect x="-144" width="1728" fill="#000000" y="-143.999994" height="1727.999922" fill-opacity="0.08"/></g></mask><clipPath id="6cffa994cd"><path d="M 0.078125 0 L 573.199219 0 L 573.199219 1440 L 0.078125 1440 Z M 0.078125 0 " clip-rule="nonzero"/></clipPath><clipPath id="2e8a8626d0"><rect x="0" width="574" y="0" height="1440"/></clipPath><mask id="a902a15338"><g filter="url(#2171b49732)"><rect x="-144" width="1728" fill="#000000" y="-143.999994" height="1727.999922" fill-opacity="0.08"/></g></mask><clipPath id="4de47f0ed5"><path d="M 0.519531 0 L 573.398438 0 L 573.398438 1440 L 0.519531 1440 Z M 0.519531 0 " clip-rule="nonzero"/></clipPath><clipPath id="83ea724dac"><rect x="0" width="574" y="0" height="1440"/></clipPath><mask id="c9f556e3ed"><g filter="url(#2171b49732)"><rect x="-144" width="1728" fill="#000000" y="-143.999994" height="1727.999922" fill-opacity="0.08"/></g></mask><clipPath id="1454974552"><path d="M 0.71875 0 L 573.839844 0 L 573.839844 1440 L 0.71875 1440 Z M 0.71875 0 " clip-rule="nonzero"/></clipPath><clipPath id="e96f379388"><rect x="0" width="574" y="0" height="1440"/></clipPath><mask id="4e1689d4b6"><g filter="url(#2171b49732)"><rect x="-144" width="1728" fill="#000000" y="-143.999994" height="1727.999922" fill-opacity="0.08"/></g></mask><clipPath id="b8874e0caa"><path d="M 0.160156 0 L 573.039062 0 L 573.039062 1440 L 0.160156 1440 Z M 0.160156 0 " clip-rule="nonzero"/></clipPath><clipPath id="e9b2c51e84"><rect x="0" width="574" y="0" height="1440"/></clipPath><mask id="55af516d23"><g filter="url(#2171b49732)"><rect x="-144" width="1728" fill="#000000" y="-143.999994" height="1727.999922" fill-opacity="0.08"/></g></mask><clipPath id="6713425c3e"><path d="M 0.359375 0 L 573.480469 0 L 573.480469 1440 L 0.359375 1440 Z M 0.359375 0 " clip-rule="nonzero"/></clipPath><clipPath id="742e1e7ceb"><rect x="0" width="574" y="0" height="1440"/></clipPath><mask id="03165bda62"><g filter="url(#2171b49732)"><rect x="-144" width="1728" fill="#000000" y="-143.999994" height="1727.999922" fill-opacity="0.08"/></g></mask><clipPath id="4855f3f502"><path d="M 0.558594 0 L 573.679688 0 L 573.679688 1440 L 0.558594 1440 Z M 0.558594 0 " clip-rule="nonzero"/></clipPath><clipPath id="4602c5e75b"><rect x="0" width="574" y="0" height="1440"/></clipPath><mask id="a88dd33d66"><g filter="url(#2171b49732)"><rect x="-144" width="1728" fill="#000000" y="-143.999994" height="1727.999922" fill-opacity="0.08"/></g></mask><clipPath id="79327c5fdc"><path d="M 0 0 L 572.878906 0 L 572.878906 1440 L 0 1440 Z M 0 0 " clip-rule="nonzero"/></clipPath><clipPath id="a2665aa180"><rect x="0" width="573" y="0" height="1440"/></clipPath><mask id="23cbce0f01"><g filter="url(#2171b49732)"><rect x="-144" width="1728" fill="#000000" y="-143.999994" height="1727.999922" fill-opacity="0.1"/></g></mask><clipPath id="a762598020"><path d="M 0.800781 0 L 876.320312 0 L 876.320312 1440 L 0.800781 1440 Z M 0.800781 0 " clip-rule="nonzero"/></clipPath><clipPath id="3fd890ad37"><rect x="0" width="877" y="0" height="1440"/></clipPath><mask id="7f05546eca"><g filter="url(#2171b49732)"><rect x="-144" width="1728" fill="#000000" y="-143.999994" height="1727.999922" fill-opacity="0.1"/></g></mask><clipPath id="d839f4d4fe"><path d="M 0.601562 0 L 876.121094 0 L 876.121094 1440 L 0.601562 1440 Z M 0.601562 0 " clip-rule="nonzero"/></clipPath><clipPath id="f2dcf0b28f"><rect x="0" width="877" y="0" height="1440"/></clipPath><mask id="f6af8e377b"><g filter="url(#2171b49732)"><rect x="-144" width="1728" fill="#000000" y="-143.999994" height="1727.999922" fill-opacity="0.1"/></g></mask><clipPath id="f1ad1fd8d4"><path d="M 0.398438 0 L 875.921875 0 L 875.921875 1440 L 0.398438 1440 Z M 0.398438 0 " clip-rule="nonzero"/></clipPath><clipPath id="2fe6e16c8b"><rect x="0" width="876" y="0" height="1440"/></clipPath><mask id="6532cafb23"><g filter="url(#2171b49732)"><rect x="-144" width="1728" fill="#000000" y="-143.999994" height="1727.999922" fill-opacity="0.1"/></g></mask><clipPath id="b53d94aae5"><path d="M 0.441406 0 L 875.960938 0 L 875.960938 1440 L 0.441406 1440 Z M 0.441406 0 " clip-rule="nonzero"/></clipPath><clipPath id="ea515094ce"><rect x="0" width="876" y="0" height="1440"/></clipPath><mask id="127c1ea0a2"><g filter="url(#2171b49732)"><rect x="-144" width="1728" fill="#000000" y="-143.999994" height="1727.999922" fill-opacity="0.1"/></g></mask><clipPath id="c3f1283f8c"><path d="M 0.238281 0 L 875.761719 0 L 875.761719 1440 L 0.238281 1440 Z M 0.238281 0 " clip-rule="nonzero"/></clipPath><clipPath id="44c8cd3801"><rect x="0" width="876" y="0" height="1440"/></clipPath><mask id="f2cad15447"><g filter="url(#2171b49732)"><rect x="-144" width="1728" fill="#000000" y="-143.999994" height="1727.999922" fill-opacity="0.1"/></g></mask><clipPath id="89cd66cff3"><path d="M 0.0390625 0 L 875.558594 0 L 875.558594 1440 L 0.0390625 1440 Z M 0.0390625 0 " clip-rule="nonzero"/></clipPath><clipPath id="2d59545682"><rect x="0" width="876" y="0" height="1440"/></clipPath><mask id="d7793b7caf"><g filter="url(#2171b49732)"><rect x="-144" width="1728" fill="#000000" y="-143.999994" height="1727.999922" fill-opacity="0.1"/></g></mask><clipPath id="4209ccf3a3"><path d="M 0.839844 0 L 876.359375 0 L 876.359375 1440 L 0.839844 1440 Z M 0.839844 0 " clip-rule="nonzero"/></clipPath><clipPath id="c8223de71a"><rect x="0" width="877" y="0" height="1440"/></clipPath><mask id="12a2567c90"><g filter="url(#2171b49732)"><rect x="-144" width="1728" fill="#000000" y="-143.999994" height="1727.999922" fill-opacity="0.1"/></g></mask><clipPath id="f833988213"><path d="M 0.640625 0 L 876.160156 0 L 876.160156 1440 L 0.640625 1440 Z M 0.640625 0 " clip-rule="nonzero"/></clipPath><clipPath id="62928c2941"><rect x="0" width="877" y="0" height="1440"/></clipPath><mask id="61083cba53"><g filter="url(#2171b49732)"><rect x="-144" width="1728" fill="#000000" y="-143.999994" height="1727.999922" fill-opacity="0.1"/></g></mask><clipPath id="07519de8a7"><path d="M 0.441406 0 L 875.960938 0 L 875.960938 1440 L 0.441406 1440 Z M 0.441406 0 " clip-rule="nonzero"/></clipPath><clipPath id="f46c2eba74"><rect x="0" width="876" y="0" height="1440"/></clipPath><mask id="95067b4596"><g filter="url(#2171b49732)"><rect x="-144" width="1728" fill="#000000" y="-143.999994" height="1727.999922" fill-opacity="0.1"/></g></mask><clipPath id="50366e2495"><path d="M 0.238281 0 L 875.761719 0 L 875.761719 1440 L 0.238281 1440 Z M 0.238281 0 " clip-rule="nonzero"/></clipPath><clipPath id="4fa993ac4f"><rect x="0" width="876" y="0" height="1440"/></clipPath><mask id="de54577b43"><g filter="url(#2171b49732)"><rect x="-144" width="1728" fill="#000000" y="-143.999994" height="1727.999922" fill-opacity="0.1"/></g></mask><clipPath id="d637967f51"><path d="M 0.0390625 0 L 875.558594 0 L 875.558594 1440 L 0.0390625 1440 Z M 0.0390625 0 " clip-rule="nonzero"/></clipPath><clipPath id="fc2e400d4a"><rect x="0" width="876" y="0" height="1440"/></clipPath></defs><rect x="-144" width="1728" fill="#ffffff" y="-143.999994" height="1727.999922" fill-opacity="1"/><rect x="-144" width="1728" fill="#2e364d" y="-143.999994" height="1727.999922" fill-opacity="1"/><g mask="url(#a252b83e9e)"><g transform="matrix(1, 0, 0, 1, 1035, 538)"><g clip-path="url(#f5907a1db9)"><g clip-path="url(#1dd93b80c3)"><g clip-path="url(#605dbd8cef)"><path fill="#000000" d="M 83.183594 1193.152344 L 0.785156 1163.003906 L 425.953125 1.0625 L 508.351562 31.214844 Z M 83.183594 1193.152344 " fill-opacity="1" fill-rule="nonzero"/></g></g></g></g></g><g mask="url(#d6e2a8f7c8)"><g transform="matrix(1, 0, 0, 1, 1143, 581)"><g clip-path="url(#1e09ee9db9)"><g clip-path="url(#ada5d57dac)"><g clip-path="url(#9ac72a481d)"><path fill="#000000" d="M 17.335938 1169.097656 L 0.21875 1162.835938 L 425.421875 0.800781 L 442.539062 7.0625 Z M 17.335938 1169.097656 " fill-opacity="1" fill-rule="nonzero"/></g></g></g></g></g><g mask="url(#e75ffe6b20)"><g transform="matrix(1, 0, 0, 1, 0, -0.000000000000101068)"><g clip-path="url(#968f36a3b6)"><g clip-path="url(#b858967acc)"><g clip-path="url(#fdfd7d1ca6)"><path fill="#ffffff" d="M -80.734375 1414.382812 L -108.425781 1404.25 L 435.28125 -81.640625 L 462.96875 -71.511719 Z M -80.734375 1414.382812 " fill-opacity="1" fill-rule="nonzero"/></g></g></g></g></g><g mask="url(#51f4d47edd)"><g transform="matrix(1, 0, 0, 1, 0, -0.000000000000101068)"><g clip-path="url(#114d1a9422)"><g clip-path="url(#bea1d64aac)"><g clip-path="url(#38cd458b4d)"><path fill="#ffffff" d="M -132.152344 992 L -537.847656 843.554688 L -112.796875 -318.0625 L 292.894531 -169.613281 Z M -132.152344 992 " fill-opacity="1" fill-rule="nonzero"/></g></g></g></g></g><g mask="url(#d5a9e68b5a)"><g transform="matrix(1, 0, 0, 1, 492, -0.000000000000101068)"><g clip-path="url(#0a750cb301)"><g clip-path="url(#302685168c)"><g clip-path="url(#4ff0a36856)"><path fill="#000000" d="M 70.558594 1658.652344 L 0.847656 1633.144531 L 617.542969 -52.222656 L 687.257812 -26.714844 Z M 70.558594 1658.652344 " fill-opacity="1" fill-rule="nonzero"/></g></g></g></g></g><g mask="url(#b3f8f54125)"><g transform="matrix(1, 0, 0, 1, 969, -0.000000000000101068)"><g clip-path="url(#f23f7fa45c)"><g clip-path="url(#145b212ff4)"><path stroke-linecap="butt" transform="matrix(-0.254047, 0.705663, -0.705663, -0.254047, 572.961115, -8.192699)" fill="none" stroke-linejoin="miter" d="M 0.00249692 1.001291 L 2246.421795 0.99938 " stroke="#ffffff" stroke-width="2" stroke-opacity="1" stroke-miterlimit="4"/></g></g></g></g><g mask="url(#b26452de43)"><g transform="matrix(1, 0, 0, 1, 964, -0.000000000000101068)"><g clip-path="url(#9424a33a8c)"><g clip-path="url(#9fe2b6a3df)"><path stroke-linecap="butt" transform="matrix(-0.254047, 0.705663, -0.705663, -0.254047, 573.258963, -17.340465)" fill="none" stroke-linejoin="miter" d="M 0.000330232 0.997915 L 2246.421392 1.000905 " stroke="#ffffff" stroke-width="2" stroke-opacity="1" stroke-miterlimit="4"/></g></g></g></g><g mask="url(#70c355e721)"><g transform="matrix(1, 0, 0, 1, 960, -0.000000000000101068)"><g clip-path="url(#e661791d15)"><g clip-path="url(#4fc1ef3c8c)"><path stroke-linecap="butt" transform="matrix(-0.254047, 0.705663, -0.705663, -0.254047, 572.556811, -26.488229)" fill="none" stroke-linejoin="miter" d="M -0.0000758476 0.999441 L 2246.420986 1.00243 " stroke="#ffffff" stroke-width="2" stroke-opacity="1" stroke-miterlimit="4"/></g></g></g></g><g mask="url(#7f4363cb6d)"><g transform="matrix(1, 0, 0, 1, 955, -0.000000000000101068)"><g clip-path="url(#d4893939cf)"><g clip-path="url(#0a38d56892)"><path stroke-linecap="butt" transform="matrix(-0.254047, 0.705663, -0.705663, -0.254047, 572.85466, -35.63604)" fill="none" stroke-linejoin="miter" d="M -0.000422012 1.000945 L 2246.418876 0.999034 " stroke="#ffffff" stroke-width="2" stroke-opacity="1" stroke-miterlimit="4"/></g></g></g></g><g mask="url(#d9ceb10b5e)"><g transform="matrix(1, 0, 0, 1, 950, -0.000000000000101068)"><g clip-path="url(#b0f1413ac4)"><g clip-path="url(#3a3b15eb4d)"><path stroke-linecap="butt" transform="matrix(-0.254047, 0.705663, -0.705663, -0.254047, 573.152412, -44.783805)" fill="none" stroke-linejoin="miter" d="M -0.000869341 1.002349 L 2246.423329 0.998674 " stroke="#ffffff" stroke-width="2" stroke-opacity="1" stroke-miterlimit="4"/></g></g></g></g><g mask="url(#a0534f9ac4)"><g transform="matrix(1, 0, 0, 1, 945, -0.000000000000101068)"><g clip-path="url(#0b53d4cbc8)"><g clip-path="url(#1cff2ba10d)"><path stroke-linecap="butt" transform="matrix(-0.254047, 0.705663, -0.705663, -0.254047, 573.450261, -53.931575)" fill="none" stroke-linejoin="miter" d="M -0.00303181 0.998972 L 2246.422931 1.000197 " stroke="#ffffff" stroke-width="2" stroke-opacity="1" stroke-miterlimit="4"/></g></g></g></g><g mask="url(#ab2f4ff108)"><g transform="matrix(1, 0, 0, 1, 941, -0.000000000000101068)"><g clip-path="url(#826c56bdf8)"><g clip-path="url(#1b7eb3c356)"><path stroke-linecap="butt" transform="matrix(-0.254047, 0.705663, -0.705663, -0.254047, 572.748109, -63.079337)" fill="none" stroke-linejoin="miter" d="M 0.00146134 0.998734 L 2246.422524 1.001723 " stroke="#ffffff" stroke-width="2" stroke-opacity="1" stroke-miterlimit="4"/></g></g></g></g><g mask="url(#244cdf89f3)"><g transform="matrix(1, 0, 0, 1, 936, -0.000000000000101068)"><g clip-path="url(#e85879e032)"><g clip-path="url(#07eb7ff461)"><path stroke-linecap="butt" transform="matrix(-0.254047, 0.705663, -0.705663, -0.254047, 573.045958, -72.227102)" fill="none" stroke-linejoin="miter" d="M 0.00105707 1.000259 L 2246.420355 0.998348 " stroke="#ffffff" stroke-width="2" stroke-opacity="1" stroke-miterlimit="4"/></g></g></g></g><g mask="url(#7f651fb499)"><g transform="matrix(1, 0, 0, 1, 931, -0.000000000000101068)"><g clip-path="url(#bd82cb64ed)"><g clip-path="url(#7b1fdbac09)"><path stroke-linecap="butt" transform="matrix(-0.254047, 0.705663, -0.705663, -0.254047, 573.343806, -81.374867)" fill="none" stroke-linejoin="miter" d="M 0.000652798 1.001784 L 2246.419951 0.999873 " stroke="#ffffff" stroke-width="2" stroke-opacity="1" stroke-miterlimit="4"/></g></g></g></g><g mask="url(#69b5481134)"><g transform="matrix(1, 0, 0, 1, 927, -0.000000000000101068)"><g clip-path="url(#ee7d75ead5)"><g clip-path="url(#848ead8a2d)"><path stroke-linecap="butt" transform="matrix(-0.254047, 0.705663, -0.705663, -0.254047, 572.641654, -90.522631)" fill="none" stroke-linejoin="miter" d="M -0.00151569 0.998408 L 2246.424447 0.999633 " stroke="#ffffff" stroke-width="2" stroke-opacity="1" stroke-miterlimit="4"/></g></g></g></g><g mask="url(#9817c4613b)"><g transform="matrix(1, 0, 0, 1, 922, -0.000000000000101068)"><g clip-path="url(#79522919d7)"><g clip-path="url(#6b0ae26168)"><path stroke-linecap="butt" transform="matrix(-0.254047, 0.705663, -0.705663, -0.254047, 572.939503, -99.670442)" fill="none" stroke-linejoin="miter" d="M -0.00186276 0.999912 L 2246.4241 1.001138 " stroke="#ffffff" stroke-width="2" stroke-opacity="1" stroke-miterlimit="4"/></g></g></g></g><g mask="url(#6e048919a6)"><g transform="matrix(1, 0, 0, 1, 917, -0.000000000000101068)"><g clip-path="url(#b6c20ed6e6)"><g clip-path="url(#b5d1c348c8)"><path stroke-linecap="butt" transform="matrix(-0.254047, 0.705663, -0.705663, -0.254047, 573.237375, -108.818207)" fill="none" stroke-linejoin="miter" d="M 0.00264424 0.999703 L 2246.421942 0.997792 " stroke="#ffffff" stroke-width="2" stroke-opacity="1" stroke-miterlimit="4"/></g></g></g></g><g mask="url(#c13a9399d8)"><g transform="matrix(1, 0, 0, 1, 912, -0.000000000000101068)"><g clip-path="url(#8bff458eb6)"><g clip-path="url(#73a6eb4904)"><path stroke-linecap="butt" transform="matrix(-0.254047, 0.705663, -0.705663, -0.254047, 573.535224, -117.965971)" fill="none" stroke-linejoin="miter" d="M 0.00223997 1.001228 L 2246.421538 0.999317 " stroke="#ffffff" stroke-width="2" stroke-opacity="1" stroke-miterlimit="4"/></g></g></g></g><g mask="url(#df57eb97c8)"><g transform="matrix(1, 0, 0, 1, 872, -0.000000000000101068)"><g clip-path="url(#800514dd72)"><g clip-path="url(#c9b94c7e1c)"><path stroke-linecap="butt" transform="matrix(-0.254047, 0.705663, -0.705663, -0.254047, 573.032515, -26.742288)" fill="none" stroke-linejoin="miter" d="M -0.000272213 0.998295 L 2246.42079 1.001284 " stroke="#ffffff" stroke-width="2" stroke-opacity="1" stroke-miterlimit="4"/></g></g></g></g><g mask="url(#2038706514)"><g transform="matrix(1, 0, 0, 1, 867, -0.000000000000101068)"><g clip-path="url(#f1195eaba1)"><g clip-path="url(#03653cb737)"><path stroke-linecap="butt" transform="matrix(-0.254047, 0.705663, -0.705663, -0.254047, 573.330387, -35.890055)" fill="none" stroke-linejoin="miter" d="M -0.000662937 0.999849 L 2246.420399 1.002838 " stroke="#ffffff" stroke-width="2" stroke-opacity="1" stroke-miterlimit="4"/></g></g></g></g><g mask="url(#34c54e03d7)"><g transform="matrix(1, 0, 0, 1, 863, -0.000000000000101068)"><g clip-path="url(#652f37566b)"><g clip-path="url(#0c47bf3f81)"><path stroke-linecap="butt" transform="matrix(-0.254047, 0.705663, -0.705663, -0.254047, 572.628236, -45.037821)" fill="none" stroke-linejoin="miter" d="M -0.0010654 1.001373 L 2246.423133 0.997698 " stroke="#ffffff" stroke-width="2" stroke-opacity="1" stroke-miterlimit="4"/></g></g></g></g><g mask="url(#2dcabefef2)"><g transform="matrix(1, 0, 0, 1, 858, -0.000000000000101068)"><g clip-path="url(#2c1763d66c)"><g clip-path="url(#367450e788)"><path stroke-linecap="butt" transform="matrix(-0.254047, 0.705663, -0.705663, -0.254047, 572.926084, -54.185634)" fill="none" stroke-linejoin="miter" d="M -0.00140946 1.002876 L 2246.422789 0.999201 " stroke="#ffffff" stroke-width="2" stroke-opacity="1" stroke-miterlimit="4"/></g></g></g></g><g mask="url(#f16cda9969)"><g transform="matrix(1, 0, 0, 1, 853, -0.000000000000101068)"><g clip-path="url(#8bb052e233)"><g clip-path="url(#171220c728)"><path stroke-linecap="butt" transform="matrix(-0.254047, 0.705663, -0.705663, -0.254047, 573.223933, -63.333399)" fill="none" stroke-linejoin="miter" d="M 0.00132249 0.997737 L 2246.422385 1.000726 " stroke="#ffffff" stroke-width="2" stroke-opacity="1" stroke-miterlimit="4"/></g></g></g></g><g mask="url(#a160b77bc2)"><g transform="matrix(1, 0, 0, 1, 848, -0.000000000000101068)"><g clip-path="url(#ff12cee3d4)"><g clip-path="url(#1a11b2cafe)"><path stroke-linecap="butt" transform="matrix(-0.254047, 0.705663, -0.705663, -0.254047, 573.521661, -72.481163)" fill="none" stroke-linejoin="miter" d="M 0.000864017 0.999111 L 2246.421926 1.0021 " stroke="#ffffff" stroke-width="2" stroke-opacity="1" stroke-miterlimit="4"/></g></g></g></g><g mask="url(#19517d59ac)"><g transform="matrix(1, 0, 0, 1, 844, -0.000000000000101068)"><g clip-path="url(#2e8a8626d0)"><g clip-path="url(#6cffa994cd)"><path stroke-linecap="butt" transform="matrix(-0.254047, 0.705663, -0.705663, -0.254047, 572.81951, -81.628928)" fill="none" stroke-linejoin="miter" d="M 0.000459744 1.000636 L 2246.419758 0.998725 " stroke="#ffffff" stroke-width="2" stroke-opacity="1" stroke-miterlimit="4"/></g></g></g></g><g mask="url(#a902a15338)"><g transform="matrix(1, 0, 0, 1, 839, -0.000000000000101068)"><g clip-path="url(#83ea724dac)"><g clip-path="url(#4de47f0ed5)"><path stroke-linecap="butt" transform="matrix(-0.254047, 0.705663, -0.705663, -0.254047, 573.117382, -90.776695)" fill="none" stroke-linejoin="miter" d="M 0.0000693213 1.00219 L 2246.419367 1.000279 " stroke="#ffffff" stroke-width="2" stroke-opacity="1" stroke-miterlimit="4"/></g></g></g></g><g mask="url(#c9f556e3ed)"><g transform="matrix(1, 0, 0, 1, 834, -0.000000000000101068)"><g clip-path="url(#e96f379388)"><g clip-path="url(#1454974552)"><path stroke-linecap="butt" transform="matrix(-0.254047, 0.705663, -0.705663, -0.254047, 573.41523, -99.924453)" fill="none" stroke-linejoin="miter" d="M -0.0021082 0.998818 L 2246.423854 1.000043 " stroke="#ffffff" stroke-width="2" stroke-opacity="1" stroke-miterlimit="4"/></g></g></g></g><g mask="url(#4e1689d4b6)"><g transform="matrix(1, 0, 0, 1, 830, -0.000000000000101068)"><g clip-path="url(#e9b2c51e84)"><g clip-path="url(#b8874e0caa)"><path stroke-linecap="butt" transform="matrix(-0.254047, 0.705663, -0.705663, -0.254047, 572.713079, -109.072218)" fill="none" stroke-linejoin="miter" d="M -0.00251247 1.000343 L 2246.42345 1.001568 " stroke="#ffffff" stroke-width="2" stroke-opacity="1" stroke-miterlimit="4"/></g></g></g></g><g mask="url(#55af516d23)"><g transform="matrix(1, 0, 0, 1, 825, -0.000000000000101068)"><g clip-path="url(#742e1e7ceb)"><g clip-path="url(#6713425c3e)"><path stroke-linecap="butt" transform="matrix(-0.254047, 0.705663, -0.705663, -0.254047, 573.010927, -118.220026)" fill="none" stroke-linejoin="miter" d="M 0.00203788 1.000084 L 2246.421336 0.998173 " stroke="#ffffff" stroke-width="2" stroke-opacity="1" stroke-miterlimit="4"/></g></g></g></g><g mask="url(#03165bda62)"><g transform="matrix(1, 0, 0, 1, 820, -0.000000000000101068)"><g clip-path="url(#4602c5e75b)"><g clip-path="url(#4855f3f502)"><path stroke-linecap="butt" transform="matrix(-0.254047, 0.705663, -0.705663, -0.254047, 573.308776, -127.367793)" fill="none" stroke-linejoin="miter" d="M 0.00163662 1.001608 L 2246.420935 0.999697 " stroke="#ffffff" stroke-width="2" stroke-opacity="1" stroke-miterlimit="4"/></g></g></g></g><g mask="url(#a88dd33d66)"><g transform="matrix(1, 0, 0, 1, 816, -0.000000000000101068)"><g clip-path="url(#a2665aa180)"><g clip-path="url(#79327c5fdc)"><path stroke-linecap="butt" transform="matrix(-0.254047, 0.705663, -0.705663, -0.254047, 572.606624, -136.515565)" fill="none" stroke-linejoin="miter" d="M -0.000522836 0.998229 L 2246.420539 1.001218 " stroke="#ffffff" stroke-width="2" stroke-opacity="1" stroke-miterlimit="4"/></g></g></g></g><g mask="url(#23cbce0f01)"><g transform="matrix(1, 0, 0, 1, 160, -0.000000000000101068)"><g clip-path="url(#3fd890ad37)"><g clip-path="url(#a762598020)"><path stroke-linecap="butt" transform="matrix(-0.254047, 0.705663, -0.705663, -0.254047, 875.780999, -149.051037)" fill="none" stroke-linejoin="miter" d="M -0.00193199 1.500481 L 3433.201118 1.499764 " stroke="#000000" stroke-width="3" stroke-opacity="1" stroke-miterlimit="4"/></g></g></g></g><g mask="url(#7f05546eca)"><g transform="matrix(1, 0, 0, 1, 153, -0.000000000000101068)"><g clip-path="url(#f2dcf0b28f)"><g clip-path="url(#d839f4d4fe)"><path stroke-linecap="butt" transform="matrix(-0.254047, 0.705663, -0.705663, -0.254047, 875.594703, -163.031593)" fill="none" stroke-linejoin="miter" d="M -0.001279 1.501952 L 3433.201771 1.501236 " stroke="#000000" stroke-width="3" stroke-opacity="1" stroke-miterlimit="4"/></g></g></g></g><g mask="url(#f6af8e377b)"><g transform="matrix(1, 0, 0, 1, 146, -0.000000000000101068)"><g clip-path="url(#2fe6e16c8b)"><g clip-path="url(#f1ad1fd8d4)"><path stroke-linecap="butt" transform="matrix(-0.254047, 0.705663, -0.705663, -0.254047, 875.408432, -177.01206)" fill="none" stroke-linejoin="miter" d="M -0.00249078 1.498594 L 3433.200559 1.497878 " stroke="#000000" stroke-width="3" stroke-opacity="1" stroke-miterlimit="4"/></g></g></g></g><g mask="url(#6532cafb23)"><g transform="matrix(1, 0, 0, 1, 139, -0.000000000000101068)"><g clip-path="url(#ea515094ce)"><g clip-path="url(#b53d94aae5)"><path stroke-linecap="butt" transform="matrix(-0.254047, 0.705663, -0.705663, -0.254047, 875.222136, -190.99263)" fill="none" stroke-linejoin="miter" d="M -0.00181972 1.50006 L 3433.20123 1.499343 " stroke="#000000" stroke-width="3" stroke-opacity="1" stroke-miterlimit="4"/></g></g></g></g><g mask="url(#127c1ea0a2)"><g transform="matrix(1, 0, 0, 1, 132, -0.000000000000101068)"><g clip-path="url(#44c8cd3801)"><g clip-path="url(#c3f1283f8c)"><path stroke-linecap="butt" transform="matrix(-0.254047, 0.705663, -0.705663, -0.254047, 875.035841, -204.973099)" fill="none" stroke-linejoin="miter" d="M -0.00127512 1.501571 L 3433.201775 1.500854 " stroke="#000000" stroke-width="3" stroke-opacity="1" stroke-miterlimit="4"/></g></g></g></g><g mask="url(#f2cad15447)"><g transform="matrix(1, 0, 0, 1, 125, -0.000000000000101068)"><g clip-path="url(#2d59545682)"><g clip-path="url(#89cd66cff3)"><path stroke-linecap="butt" transform="matrix(-0.254047, 0.705663, -0.705663, -0.254047, 874.849546, -218.953652)" fill="none" stroke-linejoin="miter" d="M -0.00238936 1.498143 L 3433.202425 1.502328 " stroke="#000000" stroke-width="3" stroke-opacity="1" stroke-miterlimit="4"/></g></g></g></g><g mask="url(#d7793b7caf)"><g transform="matrix(1, 0, 0, 1, 117, -0.000000000000101068)"><g clip-path="url(#c8223de71a)"><g clip-path="url(#4209ccf3a3)"><path stroke-linecap="butt" transform="matrix(-0.254047, 0.705663, -0.705663, -0.254047, 875.663274, -232.934121)" fill="none" stroke-linejoin="miter" d="M -0.00183391 1.499685 L 3433.201216 1.498968 " stroke="#000000" stroke-width="3" stroke-opacity="1" stroke-miterlimit="4"/></g></g></g></g><g mask="url(#12a2567c90)"><g transform="matrix(1, 0, 0, 1, 110, -0.000000000000101068)"><g clip-path="url(#62928c2941)"><g clip-path="url(#f833988213)"><path stroke-linecap="butt" transform="matrix(-0.254047, 0.705663, -0.705663, -0.254047, 875.476859, -246.914677)" fill="none" stroke-linejoin="miter" d="M -0.00123512 1.501006 L 3433.201815 1.50029 " stroke="#000000" stroke-width="3" stroke-opacity="1" stroke-miterlimit="4"/></g></g></g></g><g mask="url(#61083cba53)"><g transform="matrix(1, 0, 0, 1, 103, -0.000000000000101068)"><g clip-path="url(#f46c2eba74)"><g clip-path="url(#07519de8a7)"><path stroke-linecap="butt" transform="matrix(-0.254047, 0.705663, -0.705663, -0.254047, 875.290636, -260.895233)" fill="none" stroke-linejoin="miter" d="M -0.000549605 1.502568 L 3433.2025 1.501852 " stroke="#000000" stroke-width="3" stroke-opacity="1" stroke-miterlimit="4"/></g></g></g></g><g mask="url(#95067b4596)"><g transform="matrix(1, 0, 0, 1, 96, -0.000000000000101068)"><g clip-path="url(#4fa993ac4f)"><g clip-path="url(#50366e2495)"><path stroke-linecap="butt" transform="matrix(-0.254047, 0.705663, -0.705663, -0.254047, 875.104292, -274.875699)" fill="none" stroke-linejoin="miter" d="M -0.00179391 1.49912 L 3433.201256 1.498403 " stroke="#000000" stroke-width="3" stroke-opacity="1" stroke-miterlimit="4"/></g></g></g></g><g mask="url(#de54577b43)"><g transform="matrix(1, 0, 0, 1, 89, -0.000000000000101068)"><g clip-path="url(#fc2e400d4a)"><g clip-path="url(#d637967f51)"><path stroke-linecap="butt" transform="matrix(-0.254047, 0.705663, -0.705663, -0.254047, 874.918045, -288.856255)" fill="none" stroke-linejoin="miter" d="M -0.00111924 1.500652 L 3433.20193 1.499936 " stroke="#000000" stroke-width="3" stroke-opacity="1" stroke-miterlimit="4"/></g></g></g></g></svg>