<?xml version="1.0" encoding="utf-8"?>
<!-- Generator: Adobe Illustrator 28.0.0, SVG Export Plug-In . SVG Version: 6.00 Build 0)  -->
<svg version="1.1" id="Layer_2" xmlns="http://www.w3.org/2000/svg" xmlns:xlink="http://www.w3.org/1999/xlink" x="0px" y="0px"
	 viewBox="0 0 1920 262.4" style="enable-background:new 0 0 1920 262.4;" xml:space="preserve">
<style type="text/css">
	.st0{fill:#EAE9E2;}
</style>
<g>
	<path class="st0" d="M224.9,150c0,10-3.7,18.7-11.2,26.2c-7.5,7.5-16.3,11.2-26.2,11.2H42.8v75H0V75l37.5-37.5H0V0h187.5
		c10,0,18.7,3.7,26.2,11.2c7.5,7.5,11.2,16.3,11.2,26.2V150z M182.1,150V37.5H42.8v144.6L75,150H182.1z"/>
	<path class="st0" d="M484.7,262.4h-42.8v-75H302.6v75h-42.8V37.5c0-10.4,3.7-19.2,11-26.5c7.3-7.3,16.2-11,26.5-11h187.4V262.4z
		 M441.8,150V37.5H302.6v144.6l32.1-32.1H441.8z"/>
	<path class="st0" d="M926.3,11c-7.3-7.3-16.2-11-26.5-11h-150c-10.4,0-19.2,3.7-26.5,11c-7.3,7.3-11,16.2-11,26.5v187.5h-40.2
		H570.4V0h-42.8v262.4h222.3h5.4h144.6c10.4,0,19.2-3.7,26.5-11c7.3-7.3,11-16.2,11-26.5V37.5C937.2,27.1,933.6,18.3,926.3,11z
		 M894.4,224.9H755.1V37.5h139.2V224.9z"/>
	<path class="st0" d="M1207.7,262.4h-54.6L1041.7,150h117.8V37.5h-139.2v224.9h-42.8v-188l37.5-37h-37.5V0h187.4
		c10,0,18.7,3.7,26.2,11.2c7.5,7.5,11.2,16.3,11.2,26.2v101.8c0,28.6-12.5,42.8-37.5,42.8h-32.1v5.9L1207.7,262.4z"/>
	<path class="st0" d="M1456.7,262.4h-42.8v-75h-139.2v75h-42.8V37.5c0-10.4,3.7-19.2,11-26.5c7.3-7.3,16.2-11,26.5-11h187.4V262.4z
		 M1413.9,150V37.5h-139.2v144.6l32.1-32.1H1413.9z"/>
	<polygon class="st0" points="1724.5,-0.5 1721.8,-0.5 1681.7,-0.5 1681.7,194.9 1697.7,221.7 1676.3,221.7 1575.1,-0.5 
		1499.6,-0.5 1499.6,261.9 1542.4,261.9 1542.4,66.4 1526.4,39.6 1547.8,39.6 1649.5,261.9 1724.5,261.9 1724.5,37 1799.5,37 
		1799.5,262.4 1842.3,262.4 1842.3,37 1920,37 1920,-0.5 	"/>
</g>
</svg>
